# MagicaVoxel @ ephtracy

# material
mtllib Tree2.mtl
usemtl palette

# normals
vn -1 0 0
vn 1 0 0
vn 0 0 1
vn 0 0 -1
vn 0 -1 0
vn 0 1 0

# texcoords
vt 0.873047 0.5
vt 0.896484 0.5
vt 0.900391 0.5

# verts
v -6 13 6
v -6 13 -6
v -6 14 6
v -6 14 5
v -6 14 1
v -6 14 -0
v -6 14 -5
v -6 14 -6
v -6 15 5
v -6 15 1
v -6 15 -0
v -6 15 -5
v -5 12 5
v -5 12 -5
v -5 13 5
v -5 13 -5
v -5 14 6
v -5 14 5
v -5 14 -5
v -5 14 -6
v -5 15 6
v -5 15 5
v -5 15 1
v -5 15 -0
v -5 15 -5
v -5 15 -6
v -5 16 5
v -5 16 4
v -5 16 -4
v -5 16 -5
v -5 17 4
v -5 17 -4
v -4 11 4
v -4 11 -4
v -4 12 4
v -4 12 -4
v -4 16 5
v -4 16 4
v -4 16 -4
v -4 16 -5
v -4 17 5
v -4 17 4
v -4 17 -4
v -4 17 -5
v -4 18 4
v -4 18 3
v -4 18 2
v -4 18 1
v -4 18 -2
v -4 18 -3
v -4 18 -4
v -4 19 3
v -4 19 2
v -4 19 1
v -4 19 -2
v -4 19 -3
v -3 0 1
v -3 0 -1
v -3 1 1
v -3 1 -1
v -3 10 3
v -3 10 -3
v -3 11 3
v -3 11 -3
v -3 18 4
v -3 18 3
v -3 18 -3
v -3 18 -4
v -3 19 4
v -3 19 3
v -3 19 2
v -3 19 1
v -3 19 -2
v -3 19 -3
v -3 19 -4
v -3 20 3
v -3 20 2
v -3 20 -2
v -3 20 -3
v -3 21 2
v -3 21 -2
v -2 0 2
v -2 0 1
v -2 0 -1
v -2 0 -2
v -2 1 2
v -2 1 1
v -2 1 -1
v -2 1 -2
v -2 9 2
v -2 9 -2
v -2 10 2
v -2 10 -2
v -2 20 3
v -2 20 2
v -2 20 -2
v -2 20 -3
v -2 21 3
v -2 21 2
v -2 21 -2
v -2 21 -3
v -2 22 2
v -2 22 1
v -2 22 -1
v -2 22 -2
v -2 23 1
v -2 23 -1
v -1 0 3
v -1 0 2
v -1 0 -2
v -1 0 -3
v -1 1 3
v -1 1 2
v -1 1 1
v -1 1 -1
v -1 1 -2
v -1 1 -3
v -1 9 1
v -1 9 -1
v -1 22 2
v -1 22 1
v -1 22 -1
v -1 22 -2
v -1 23 2
v -1 23 1
v -1 23 -1
v -1 23 -2
v -1 24 1
v -1 24 -1
v 1 0 3
v 1 0 2
v 1 0 -2
v 1 0 -3
v 1 1 3
v 1 1 2
v 1 1 1
v 1 1 -1
v 1 1 -2
v 1 1 -3
v 1 9 1
v 1 9 -1
v 1 22 2
v 1 22 1
v 1 22 -1
v 1 22 -2
v 1 23 2
v 1 23 1
v 1 23 -1
v 1 23 -2
v 1 24 1
v 1 24 -1
v 2 0 2
v 2 0 1
v 2 0 -1
v 2 0 -2
v 2 1 2
v 2 1 1
v 2 1 -1
v 2 1 -2
v 2 9 2
v 2 9 -2
v 2 10 2
v 2 10 -2
v 2 20 3
v 2 20 2
v 2 20 -2
v 2 20 -3
v 2 21 3
v 2 21 2
v 2 21 -2
v 2 21 -3
v 2 22 2
v 2 22 1
v 2 22 -1
v 2 22 -2
v 2 23 1
v 2 23 -1
v 3 0 1
v 3 0 -1
v 3 1 1
v 3 1 -1
v 3 10 3
v 3 10 -3
v 3 11 3
v 3 11 -3
v 3 18 4
v 3 18 3
v 3 18 -3
v 3 18 -4
v 3 19 4
v 3 19 3
v 3 19 -0
v 3 19 -1
v 3 19 -3
v 3 19 -4
v 3 20 3
v 3 20 2
v 3 20 -2
v 3 20 -3
v 3 21 2
v 3 21 -2
v 4 11 4
v 4 11 -4
v 4 12 4
v 4 12 -4
v 4 16 5
v 4 16 4
v 4 16 -4
v 4 16 -5
v 4 17 5
v 4 17 4
v 4 17 3
v 4 17 -4
v 4 17 -5
v 4 18 4
v 4 18 3
v 4 18 -0
v 4 18 -1
v 4 18 -3
v 4 18 -4
v 4 19 3
v 4 19 -0
v 4 19 -1
v 4 19 -3
v 5 12 5
v 5 12 -5
v 5 13 5
v 5 13 -5
v 5 14 6
v 5 14 5
v 5 14 -5
v 5 14 -6
v 5 15 6
v 5 15 5
v 5 15 4
v 5 15 -4
v 5 15 -5
v 5 15 -6
v 5 16 5
v 5 16 4
v 5 16 3
v 5 16 -4
v 5 16 -5
v 5 17 4
v 5 17 3
v 5 17 -4
v 6 13 6
v 6 13 -6
v 6 14 6
v 6 14 5
v 6 14 -4
v 6 14 -5
v 6 14 -6
v 6 15 5
v 6 15 -4
v 6 15 -5
v -6 13 6
v -6 14 6
v -5 14 6
v -5 15 6
v 0 14 6
v 0 15 6
v 1 14 6
v 1 15 6
v 5 14 6
v 5 15 6
v 6 13 6
v 6 14 6
v -6 14 5
v -6 15 5
v -5 12 5
v -5 13 5
v -5 14 5
v -5 15 5
v -5 16 5
v -4 16 5
v -4 17 5
v 0 15 5
v 1 15 5
v 4 15 5
v 4 16 5
v 4 17 5
v 5 12 5
v 5 13 5
v 5 14 5
v 5 15 5
v 5 16 5
v 6 14 5
v 6 15 5
v -5 16 4
v -5 17 4
v -4 11 4
v -4 12 4
v -4 16 4
v -4 17 4
v -4 18 4
v -3 18 4
v -3 19 4
v -2 18 4
v -2 19 4
v -1 18 4
v -1 19 4
v 3 18 4
v 3 19 4
v 4 11 4
v 4 12 4
v 4 16 4
v 4 17 4
v 4 18 4
v 5 16 4
v 5 17 4
v -4 18 3
v -4 19 3
v -3 10 3
v -3 11 3
v -3 18 3
v -3 19 3
v -3 20 3
v -2 19 3
v -2 20 3
v -2 21 3
v -1 0 3
v -1 1 3
v -1 19 3
v 1 0 3
v 1 1 3
v 2 20 3
v 2 21 3
v 3 10 3
v 3 11 3
v 3 18 3
v 3 19 3
v 3 20 3
v 4 18 3
v 4 19 3
v -3 20 2
v -3 21 2
v -2 0 2
v -2 1 2
v -2 9 2
v -2 10 2
v -2 20 2
v -2 21 2
v -2 22 2
v -1 0 2
v -1 1 2
v -1 22 2
v -1 23 2
v 1 0 2
v 1 1 2
v 1 22 2
v 1 23 2
v 2 0 2
v 2 1 2
v 2 9 2
v 2 10 2
v 2 20 2
v 2 21 2
v 2 22 2
v 3 20 2
v 3 21 2
v -3 0 1
v -3 1 1
v -2 0 1
v -2 1 1
v -2 22 1
v -2 23 1
v -1 1 1
v -1 9 1
v -1 22 1
v -1 23 1
v -1 24 1
v 1 1 1
v 1 9 1
v 1 22 1
v 1 23 1
v 1 24 1
v 2 0 1
v 2 1 1
v 2 22 1
v 2 23 1
v 3 0 1
v 3 1 1
v -3 0 -1
v -3 1 -1
v -2 0 -1
v -2 1 -1
v -2 22 -1
v -2 23 -1
v -1 1 -1
v -1 9 -1
v -1 22 -1
v -1 23 -1
v -1 24 -1
v 1 1 -1
v 1 9 -1
v 1 22 -1
v 1 23 -1
v 1 24 -1
v 2 0 -1
v 2 1 -1
v 2 22 -1
v 2 23 -1
v 3 0 -1
v 3 1 -1
v -3 20 -2
v -3 21 -2
v -2 0 -2
v -2 1 -2
v -2 9 -2
v -2 10 -2
v -2 20 -2
v -2 21 -2
v -2 22 -2
v -1 0 -2
v -1 1 -2
v -1 22 -2
v -1 23 -2
v 1 0 -2
v 1 1 -2
v 1 21 -2
v 1 22 -2
v 1 23 -2
v 2 0 -2
v 2 1 -2
v 2 9 -2
v 2 10 -2
v 2 20 -2
v 2 21 -2
v 2 22 -2
v 3 20 -2
v 3 21 -2
v -4 18 -3
v -4 19 -3
v -3 10 -3
v -3 11 -3
v -3 18 -3
v -3 19 -3
v -3 20 -3
v -2 20 -3
v -2 21 -3
v -1 0 -3
v -1 1 -3
v -1 19 -3
v 0 19 -3
v 1 0 -3
v 1 1 -3
v 1 20 -3
v 1 21 -3
v 2 20 -3
v 2 21 -3
v 3 10 -3
v 3 11 -3
v 3 18 -3
v 3 19 -3
v 3 20 -3
v 4 18 -3
v 4 19 -3
v -5 16 -4
v -5 17 -4
v -4 11 -4
v -4 12 -4
v -4 16 -4
v -4 17 -4
v -4 18 -4
v -3 18 -4
v -3 19 -4
v -1 18 -4
v -1 19 -4
v 0 18 -4
v 0 19 -4
v 2 17 -4
v 3 17 -4
v 3 18 -4
v 3 19 -4
v 4 11 -4
v 4 12 -4
v 4 16 -4
v 4 17 -4
v 4 18 -4
v 5 16 -4
v 5 17 -4
v -6 14 -5
v -6 15 -5
v -5 12 -5
v -5 13 -5
v -5 14 -5
v -5 15 -5
v -5 16 -5
v -4 16 -5
v -4 17 -5
v -3 15 -5
v -2 15 -5
v 2 16 -5
v 2 17 -5
v 3 16 -5
v 3 17 -5
v 4 16 -5
v 4 17 -5
v 5 12 -5
v 5 13 -5
v 5 14 -5
v 5 15 -5
v 5 16 -5
v 6 14 -5
v 6 15 -5
v -6 13 -6
v -6 14 -6
v -5 14 -6
v -5 15 -6
v -3 14 -6
v -3 15 -6
v -2 14 -6
v -2 15 -6
v 5 14 -6
v 5 15 -6
v 6 13 -6
v 6 14 -6
v -1 0 3
v 1 0 3
v -2 0 2
v -1 0 2
v 1 0 2
v 2 0 2
v -3 0 1
v -2 0 1
v 2 0 1
v 3 0 1
v -3 0 -1
v -2 0 -1
v 2 0 -1
v 3 0 -1
v -2 0 -2
v -1 0 -2
v 1 0 -2
v 2 0 -2
v -1 0 -3
v 1 0 -3
v -2 9 2
v 2 9 2
v -1 9 1
v 1 9 1
v -1 9 -1
v 1 9 -1
v -2 9 -2
v 2 9 -2
v -3 10 3
v 3 10 3
v -2 10 2
v 2 10 2
v -2 10 -2
v 2 10 -2
v -3 10 -3
v 3 10 -3
v -4 11 4
v 4 11 4
v -3 11 3
v 3 11 3
v -3 11 -3
v 3 11 -3
v -4 11 -4
v 4 11 -4
v -5 12 5
v 5 12 5
v -4 12 4
v 4 12 4
v -4 12 -4
v 4 12 -4
v -5 12 -5
v 5 12 -5
v -6 13 6
v 6 13 6
v -5 13 5
v 5 13 5
v -5 13 -5
v 5 13 -5
v -6 13 -6
v 6 13 -6
v -1 1 3
v 1 1 3
v -2 1 2
v -1 1 2
v 1 1 2
v 2 1 2
v -3 1 1
v -2 1 1
v -1 1 1
v 1 1 1
v 2 1 1
v 3 1 1
v -3 1 -1
v -2 1 -1
v -1 1 -1
v 1 1 -1
v 2 1 -1
v 3 1 -1
v -2 1 -2
v -1 1 -2
v 1 1 -2
v 2 1 -2
v -1 1 -3
v 1 1 -3
v -6 14 6
v -5 14 6
v 5 14 6
v 6 14 6
v -6 14 5
v -5 14 5
v 5 14 5
v 6 14 5
v -6 14 -5
v -5 14 -5
v 5 14 -5
v 6 14 -5
v -6 14 -6
v -5 14 -6
v 5 14 -6
v 6 14 -6
v -5 15 6
v 0 15 6
v 1 15 6
v 5 15 6
v -6 15 5
v -5 15 5
v 0 15 5
v 1 15 5
v 4 15 5
v 5 15 5
v 6 15 5
v 5 15 4
v -6 15 1
v -5 15 1
v -6 15 -0
v -5 15 -0
v 5 15 -4
v 6 15 -4
v -6 15 -5
v -5 15 -5
v -3 15 -5
v -2 15 -5
v 5 15 -5
v 6 15 -5
v -5 15 -6
v -3 15 -6
v -2 15 -6
v 5 15 -6
v -5 16 5
v -4 16 5
v 4 16 5
v 5 16 5
v -5 16 4
v -4 16 4
v 4 16 4
v 5 16 4
v -5 16 -4
v -4 16 -4
v 4 16 -4
v 5 16 -4
v -5 16 -5
v -4 16 -5
v 4 16 -5
v 5 16 -5
v -4 17 5
v 4 17 5
v -5 17 4
v -4 17 4
v 4 17 4
v 5 17 4
v 4 17 3
v 5 17 3
v -5 17 -4
v -4 17 -4
v 2 17 -4
v 3 17 -4
v 4 17 -4
v 5 17 -4
v -4 17 -5
v 2 17 -5
v 3 17 -5
v 4 17 -5
v -4 18 4
v -3 18 4
v 3 18 4
v 4 18 4
v -4 18 3
v -3 18 3
v 3 18 3
v 4 18 3
v -4 18 -3
v -3 18 -3
v 3 18 -3
v 4 18 -3
v -4 18 -4
v -3 18 -4
v 3 18 -4
v 4 18 -4
v -3 19 4
v -2 19 4
v -1 19 4
v 3 19 4
v -4 19 3
v -3 19 3
v -2 19 3
v -1 19 3
v 3 19 3
v 4 19 3
v -4 19 2
v -3 19 2
v -4 19 1
v -3 19 1
v 3 19 -0
v 4 19 -0
v 3 19 -1
v 4 19 -1
v -4 19 -2
v -3 19 -2
v -4 19 -3
v -3 19 -3
v -1 19 -3
v 0 19 -3
v 3 19 -3
v 4 19 -3
v -3 19 -4
v -1 19 -4
v 0 19 -4
v 3 19 -4
v -3 20 3
v -2 20 3
v 2 20 3
v 3 20 3
v -3 20 2
v -2 20 2
v 2 20 2
v 3 20 2
v -3 20 -2
v -2 20 -2
v 2 20 -2
v 3 20 -2
v -3 20 -3
v -2 20 -3
v 2 20 -3
v 3 20 -3
v -2 21 3
v 2 21 3
v -3 21 2
v -2 21 2
v 2 21 2
v 3 21 2
v -3 21 -2
v -2 21 -2
v 1 21 -2
v 2 21 -2
v 3 21 -2
v -2 21 -3
v 1 21 -3
v 2 21 -3
v -2 22 2
v -1 22 2
v 1 22 2
v 2 22 2
v -2 22 1
v -1 22 1
v 1 22 1
v 2 22 1
v -2 22 -1
v -1 22 -1
v 1 22 -1
v 2 22 -1
v -2 22 -2
v -1 22 -2
v 1 22 -2
v 2 22 -2
v -1 23 2
v 1 23 2
v -2 23 1
v -1 23 1
v 1 23 1
v 2 23 1
v -2 23 -1
v -1 23 -1
v 1 23 -1
v 2 23 -1
v -1 23 -2
v 1 23 -2
v -1 24 1
v 1 24 1
v -1 24 -1
v 1 24 -1

# faces
f 3/2/1 2/2/1 1/2/1
f 4/2/1 2/2/1 3/2/1
f 5/2/1 2/2/1 4/2/1
f 6/2/1 2/2/1 5/2/1
f 7/2/1 2/2/1 6/2/1
f 8/2/1 2/2/1 7/2/1
f 9/2/1 5/2/1 4/2/1
f 10/3/1 6/3/1 5/3/1
f 10/2/1 5/2/1 9/2/1
f 11/2/1 7/2/1 6/2/1
f 11/3/1 6/3/1 10/3/1
f 12/2/1 7/2/1 11/2/1
f 15/2/1 14/2/1 13/2/1
f 16/2/1 14/2/1 15/2/1
f 21/2/1 18/2/1 17/2/1
f 22/2/1 18/2/1 21/2/1
f 25/2/1 20/2/1 19/2/1
f 26/2/1 20/2/1 25/2/1
f 27/2/1 24/2/1 23/2/1
f 27/2/1 25/2/1 24/2/1
f 27/2/1 23/2/1 22/2/1
f 28/2/1 25/2/1 27/2/1
f 29/2/1 25/2/1 28/2/1
f 30/2/1 25/2/1 29/2/1
f 31/2/1 29/2/1 28/2/1
f 32/2/1 29/2/1 31/2/1
f 35/2/1 34/2/1 33/2/1
f 36/2/1 34/2/1 35/2/1
f 41/2/1 38/2/1 37/2/1
f 42/2/1 38/2/1 41/2/1
f 43/2/1 40/2/1 39/2/1
f 44/2/1 40/2/1 43/2/1
f 45/2/1 43/2/1 42/2/1
f 46/2/1 43/2/1 45/2/1
f 47/2/1 43/2/1 46/2/1
f 48/2/1 43/2/1 47/2/1
f 49/2/1 43/2/1 48/2/1
f 50/2/1 43/2/1 49/2/1
f 51/2/1 43/2/1 50/2/1
f 52/2/1 47/2/1 46/2/1
f 53/3/1 48/3/1 47/3/1
f 53/2/1 47/2/1 52/2/1
f 54/2/1 49/2/1 48/2/1
f 54/3/1 48/3/1 53/3/1
f 55/3/1 50/3/1 49/3/1
f 55/2/1 49/2/1 54/2/1
f 56/3/1 50/3/1 55/3/1
f 59/1/1 58/1/1 57/1/1
f 60/1/1 58/1/1 59/1/1
f 63/2/1 62/2/1 61/2/1
f 64/2/1 62/2/1 63/2/1
f 69/2/1 66/2/1 65/2/1
f 70/2/1 66/2/1 69/2/1
f 74/2/1 68/2/1 67/2/1
f 75/2/1 68/2/1 74/2/1
f 76/2/1 73/2/1 72/2/1
f 76/2/1 74/2/1 73/2/1
f 76/2/1 71/2/1 70/2/1
f 76/2/1 72/2/1 71/2/1
f 77/2/1 74/2/1 76/2/1
f 78/2/1 74/2/1 77/2/1
f 79/2/1 74/2/1 78/2/1
f 80/2/1 78/2/1 77/2/1
f 81/2/1 78/2/1 80/2/1
f 86/1/1 83/1/1 82/1/1
f 87/1/1 83/1/1 86/1/1
f 88/1/1 85/1/1 84/1/1
f 89/1/1 85/1/1 88/1/1
f 92/2/1 91/2/1 90/2/1
f 93/2/1 91/2/1 92/2/1
f 98/2/1 95/2/1 94/2/1
f 99/2/1 95/2/1 98/2/1
f 100/2/1 97/2/1 96/2/1
f 101/2/1 97/2/1 100/2/1
f 102/2/1 100/2/1 99/2/1
f 103/2/1 100/2/1 102/2/1
f 104/2/1 100/2/1 103/2/1
f 105/2/1 100/2/1 104/2/1
f 106/2/1 104/2/1 103/2/1
f 107/2/1 104/2/1 106/2/1
f 112/1/1 109/1/1 108/1/1
f 113/1/1 109/1/1 112/1/1
f 116/1/1 111/1/1 110/1/1
f 117/1/1 111/1/1 116/1/1
f 118/1/1 115/1/1 114/1/1
f 119/1/1 115/1/1 118/1/1
f 124/2/1 121/2/1 120/2/1
f 125/2/1 121/2/1 124/2/1
f 126/2/1 123/2/1 122/2/1
f 127/2/1 123/2/1 126/2/1
f 128/2/1 126/2/1 125/2/1
f 129/2/1 126/2/1 128/2/1
f 130/1/2 131/1/2 134/1/2
f 134/1/2 131/1/2 135/1/2
f 132/1/2 133/1/2 138/1/2
f 138/1/2 133/1/2 139/1/2
f 136/1/2 137/1/2 140/1/2
f 140/1/2 137/1/2 141/1/2
f 142/2/2 143/2/2 146/2/2
f 146/2/2 143/2/2 147/2/2
f 144/2/2 145/2/2 148/2/2
f 148/2/2 145/2/2 149/2/2
f 147/2/2 148/2/2 150/2/2
f 150/2/2 148/2/2 151/2/2
f 152/1/2 153/1/2 156/1/2
f 156/1/2 153/1/2 157/1/2
f 154/1/2 155/1/2 158/1/2
f 158/1/2 155/1/2 159/1/2
f 160/2/2 161/2/2 162/2/2
f 162/2/2 161/2/2 163/2/2
f 164/2/2 165/2/2 168/2/2
f 168/2/2 165/2/2 169/2/2
f 166/3/2 167/3/2 170/3/2
f 170/3/2 167/3/2 171/3/2
f 169/2/2 170/2/2 172/2/2
f 172/2/2 170/2/2 173/2/2
f 173/2/2 170/2/2 174/2/2
f 174/2/2 170/2/2 175/2/2
f 173/2/2 174/2/2 176/2/2
f 176/2/2 174/2/2 177/2/2
f 178/1/2 179/1/2 180/1/2
f 180/1/2 179/1/2 181/1/2
f 182/2/2 183/2/2 184/2/2
f 184/2/2 183/2/2 185/2/2
f 186/2/2 187/2/2 190/2/2
f 190/2/2 187/2/2 191/2/2
f 188/2/2 189/2/2 194/2/2
f 194/2/2 189/2/2 195/2/2
f 192/2/2 193/2/2 196/2/2
f 193/2/2 194/2/2 196/2/2
f 191/2/2 192/2/2 196/2/2
f 196/2/2 194/2/2 197/2/2
f 197/2/2 194/2/2 198/2/2
f 198/2/2 194/2/2 199/2/2
f 197/2/2 198/2/2 200/2/2
f 200/2/2 198/2/2 201/2/2
f 202/2/2 203/2/2 204/2/2
f 204/2/2 203/2/2 205/2/2
f 206/2/2 207/2/2 210/2/2
f 210/2/2 207/2/2 211/2/2
f 208/2/2 209/2/2 213/2/2
f 213/2/2 209/2/2 214/2/2
f 211/2/2 212/2/2 215/2/2
f 212/2/2 213/2/2 215/2/2
f 215/2/2 213/2/2 216/2/2
f 216/2/2 213/2/2 217/2/2
f 217/2/2 213/2/2 218/2/2
f 218/2/2 213/2/2 219/2/2
f 219/2/2 213/2/2 220/2/2
f 216/2/2 217/2/2 221/2/2
f 217/3/2 218/3/2 222/3/2
f 221/2/2 217/2/2 222/2/2
f 218/2/2 219/2/2 223/2/2
f 222/3/2 218/3/2 223/3/2
f 223/2/2 219/2/2 224/2/2
f 225/2/2 226/2/2 227/2/2
f 227/2/2 226/2/2 228/2/2
f 229/2/2 230/2/2 233/2/2
f 233/2/2 230/2/2 234/2/2
f 231/2/2 232/2/2 237/2/2
f 237/2/2 232/2/2 238/2/2
f 234/3/2 235/3/2 239/3/2
f 235/2/2 236/2/2 240/2/2
f 239/3/2 235/3/2 240/3/2
f 236/2/2 237/2/2 240/2/2
f 240/2/2 237/2/2 241/2/2
f 241/2/2 237/2/2 242/2/2
f 242/2/2 237/2/2 243/2/2
f 240/3/2 241/3/2 244/3/2
f 241/2/2 242/2/2 245/2/2
f 244/3/2 241/3/2 245/3/2
f 245/2/2 242/2/2 246/2/2
f 247/2/2 248/2/2 249/2/2
f 249/2/2 248/2/2 250/2/2
f 250/2/2 248/2/2 251/2/2
f 251/2/2 248/2/2 252/2/2
f 252/2/2 248/2/2 253/2/2
f 250/2/2 251/2/2 254/2/2
f 251/3/2 252/3/2 255/3/2
f 254/2/2 251/2/2 255/2/2
f 255/3/2 252/3/2 256/3/2
f 259/2/3 258/2/3 257/2/3
f 261/2/3 259/2/3 257/2/3
f 261/2/3 260/2/3 259/2/3
f 262/2/3 260/2/3 261/2/3
f 263/2/3 261/2/3 257/2/3
f 263/3/3 262/3/3 261/3/3
f 264/3/3 262/3/3 263/3/3
f 265/2/3 263/2/3 257/2/3
f 265/2/3 264/2/3 263/2/3
f 266/2/3 264/2/3 265/2/3
f 267/2/3 265/2/3 257/2/3
f 268/2/3 265/2/3 267/2/3
f 273/2/3 270/2/3 269/2/3
f 274/2/3 270/2/3 273/2/3
f 276/2/3 275/2/3 274/2/3
f 278/2/3 276/2/3 274/2/3
f 278/2/3 277/2/3 276/2/3
f 279/2/3 277/2/3 278/2/3
f 280/2/3 277/2/3 279/2/3
f 281/2/3 277/2/3 280/2/3
f 282/2/3 277/2/3 281/2/3
f 283/2/3 272/2/3 271/2/3
f 284/2/3 272/2/3 283/2/3
f 286/3/3 281/3/3 280/3/3
f 287/3/3 281/3/3 286/3/3
f 288/2/3 286/2/3 285/2/3
f 289/2/3 286/2/3 288/2/3
f 294/2/3 291/2/3 290/2/3
f 295/2/3 291/2/3 294/2/3
f 297/2/3 296/2/3 295/2/3
f 299/2/3 297/2/3 295/2/3
f 299/2/3 298/2/3 297/2/3
f 300/2/3 298/2/3 299/2/3
f 301/2/3 299/2/3 295/2/3
f 301/3/3 300/3/3 299/3/3
f 302/3/3 300/3/3 301/3/3
f 303/2/3 301/2/3 295/2/3
f 303/2/3 302/2/3 301/2/3
f 304/2/3 302/2/3 303/2/3
f 305/2/3 293/2/3 292/2/3
f 306/2/3 293/2/3 305/2/3
f 308/2/3 303/2/3 295/2/3
f 309/2/3 303/2/3 308/2/3
f 310/3/3 308/3/3 307/3/3
f 311/3/3 308/3/3 310/3/3
f 316/2/3 313/2/3 312/2/3
f 317/2/3 313/2/3 316/2/3
f 319/2/3 318/2/3 317/2/3
f 320/2/3 318/2/3 319/2/3
f 324/2/3 320/2/3 319/2/3
f 324/2/3 321/2/3 320/2/3
f 325/1/3 323/1/3 322/1/3
f 326/1/3 323/1/3 325/1/3
f 327/2/3 321/2/3 324/2/3
f 328/2/3 321/2/3 327/2/3
f 329/2/3 315/2/3 314/2/3
f 330/2/3 315/2/3 329/2/3
f 332/2/3 327/2/3 324/2/3
f 333/2/3 327/2/3 332/2/3
f 334/2/3 332/2/3 331/2/3
f 335/2/3 332/2/3 334/2/3
f 342/2/3 337/2/3 336/2/3
f 343/2/3 337/2/3 342/2/3
f 345/1/3 339/1/3 338/1/3
f 346/1/3 339/1/3 345/1/3
f 347/2/3 344/2/3 343/2/3
f 351/2/3 348/2/3 347/2/3
f 351/2/3 347/2/3 343/2/3
f 352/2/3 348/2/3 351/2/3
f 353/1/3 350/1/3 349/1/3
f 354/1/3 350/1/3 353/1/3
f 355/2/3 341/2/3 340/2/3
f 356/2/3 341/2/3 355/2/3
f 358/2/3 351/2/3 343/2/3
f 359/2/3 351/2/3 358/2/3
f 360/2/3 358/2/3 357/2/3
f 361/2/3 358/2/3 360/2/3
f 364/1/3 363/1/3 362/1/3
f 365/1/3 363/1/3 364/1/3
f 370/2/3 367/2/3 366/2/3
f 371/2/3 367/2/3 370/2/3
f 373/1/3 369/1/3 368/1/3
f 374/1/3 369/1/3 373/1/3
f 376/2/3 372/2/3 371/2/3
f 377/2/3 372/2/3 376/2/3
f 380/2/3 376/2/3 375/2/3
f 381/2/3 376/2/3 380/2/3
f 382/1/3 379/1/3 378/1/3
f 383/1/3 379/1/3 382/1/3
f 384/1/4 385/1/4 386/1/4
f 386/1/4 385/1/4 387/1/4
f 388/2/4 389/2/4 392/2/4
f 392/2/4 389/2/4 393/2/4
f 390/1/4 391/1/4 395/1/4
f 395/1/4 391/1/4 396/1/4
f 393/2/4 394/2/4 398/2/4
f 398/2/4 394/2/4 399/2/4
f 397/2/4 398/2/4 402/2/4
f 402/2/4 398/2/4 403/2/4
f 400/1/4 401/1/4 404/1/4
f 404/1/4 401/1/4 405/1/4
f 406/2/4 407/2/4 412/2/4
f 412/2/4 407/2/4 413/2/4
f 408/1/4 409/1/4 415/1/4
f 415/1/4 409/1/4 416/1/4
f 413/2/4 414/2/4 417/2/4
f 417/2/4 418/2/4 421/2/4
f 413/2/4 417/2/4 421/2/4
f 421/2/4 418/2/4 422/2/4
f 422/2/4 418/2/4 423/2/4
f 419/1/4 420/1/4 424/1/4
f 424/1/4 420/1/4 425/1/4
f 410/2/4 411/2/4 426/2/4
f 426/2/4 411/2/4 427/2/4
f 421/2/4 422/2/4 429/2/4
f 429/2/4 422/2/4 430/2/4
f 428/2/4 429/2/4 431/2/4
f 431/2/4 429/2/4 432/2/4
f 433/3/4 434/3/4 437/3/4
f 437/3/4 434/3/4 438/3/4
f 438/2/4 439/2/4 440/2/4
f 438/2/4 440/2/4 444/2/4
f 440/2/4 441/2/4 444/2/4
f 444/2/4 441/2/4 445/2/4
f 442/1/4 443/1/4 446/1/4
f 446/1/4 443/1/4 447/1/4
f 445/2/4 441/2/4 448/2/4
f 448/2/4 441/2/4 449/2/4
f 445/2/4 448/2/4 450/2/4
f 448/3/4 449/3/4 450/3/4
f 450/3/4 449/3/4 451/3/4
f 435/2/4 436/2/4 452/2/4
f 452/2/4 436/2/4 453/2/4
f 445/2/4 450/2/4 455/2/4
f 455/2/4 450/2/4 456/2/4
f 454/2/4 455/2/4 457/2/4
f 457/2/4 455/2/4 458/2/4
f 459/2/4 460/2/4 463/2/4
f 463/2/4 460/2/4 464/2/4
f 464/2/4 465/2/4 466/2/4
f 464/2/4 466/2/4 468/2/4
f 466/2/4 467/2/4 468/2/4
f 468/2/4 467/2/4 469/2/4
f 464/2/4 468/2/4 470/2/4
f 468/3/4 469/3/4 470/3/4
f 470/3/4 469/3/4 471/3/4
f 464/2/4 470/2/4 472/2/4
f 470/2/4 471/2/4 472/2/4
f 472/2/4 471/2/4 473/2/4
f 473/2/4 471/2/4 474/2/4
f 474/2/4 471/2/4 475/2/4
f 461/2/4 462/2/4 476/2/4
f 476/2/4 462/2/4 477/2/4
f 473/2/4 474/2/4 479/2/4
f 479/2/4 474/2/4 480/2/4
f 478/2/4 479/2/4 481/2/4
f 481/2/4 479/2/4 482/2/4
f 483/2/4 484/2/4 487/2/4
f 487/2/4 484/2/4 488/2/4
f 488/2/4 489/2/4 490/2/4
f 488/2/4 490/2/4 492/2/4
f 490/2/4 491/2/4 492/2/4
f 492/2/4 491/2/4 493/2/4
f 493/2/4 491/2/4 494/2/4
f 494/2/4 491/2/4 495/2/4
f 493/2/4 494/2/4 496/2/4
f 494/3/4 495/3/4 496/3/4
f 496/3/4 495/3/4 497/3/4
f 493/2/4 496/2/4 498/2/4
f 496/2/4 497/2/4 498/2/4
f 498/2/4 497/2/4 499/2/4
f 485/2/4 486/2/4 500/2/4
f 500/2/4 486/2/4 501/2/4
f 493/2/4 498/2/4 503/2/4
f 503/2/4 498/2/4 504/2/4
f 502/3/4 503/3/4 505/3/4
f 505/3/4 503/3/4 506/3/4
f 507/2/4 508/2/4 509/2/4
f 507/2/4 509/2/4 511/2/4
f 509/2/4 510/2/4 511/2/4
f 511/2/4 510/2/4 512/2/4
f 507/2/4 511/2/4 513/2/4
f 511/3/4 512/3/4 513/3/4
f 513/3/4 512/3/4 514/3/4
f 507/2/4 513/2/4 515/2/4
f 513/2/4 514/2/4 515/2/4
f 515/2/4 514/2/4 516/2/4
f 507/2/4 515/2/4 517/2/4
f 517/2/4 515/2/4 518/2/4
f 522/1/5 520/1/5 519/1/5
f 523/1/5 520/1/5 522/1/5
f 526/1/5 522/1/5 521/1/5
f 526/1/5 524/1/5 523/1/5
f 526/1/5 523/1/5 522/1/5
f 527/1/5 524/1/5 526/1/5
f 529/1/5 526/1/5 525/1/5
f 529/1/5 528/1/5 527/1/5
f 529/1/5 527/1/5 526/1/5
f 530/1/5 528/1/5 529/1/5
f 531/1/5 528/1/5 530/1/5
f 532/1/5 528/1/5 531/1/5
f 533/1/5 531/1/5 530/1/5
f 534/1/5 531/1/5 533/1/5
f 535/1/5 531/1/5 534/1/5
f 536/1/5 531/1/5 535/1/5
f 537/1/5 535/1/5 534/1/5
f 538/1/5 535/1/5 537/1/5
f 541/2/5 540/2/5 539/2/5
f 542/2/5 540/2/5 541/2/5
f 543/2/5 541/2/5 539/2/5
f 544/2/5 540/2/5 542/2/5
f 545/2/5 543/2/5 539/2/5
f 545/2/5 544/2/5 543/2/5
f 546/2/5 540/2/5 544/2/5
f 546/2/5 544/2/5 545/2/5
f 549/2/5 548/2/5 547/2/5
f 550/2/5 548/2/5 549/2/5
f 551/2/5 549/2/5 547/2/5
f 552/2/5 548/2/5 550/2/5
f 553/2/5 551/2/5 547/2/5
f 553/2/5 552/2/5 551/2/5
f 554/2/5 548/2/5 552/2/5
f 554/2/5 552/2/5 553/2/5
f 557/2/5 556/2/5 555/2/5
f 558/2/5 556/2/5 557/2/5
f 559/2/5 557/2/5 555/2/5
f 560/2/5 556/2/5 558/2/5
f 561/2/5 559/2/5 555/2/5
f 561/2/5 560/2/5 559/2/5
f 562/2/5 556/2/5 560/2/5
f 562/2/5 560/2/5 561/2/5
f 565/2/5 564/2/5 563/2/5
f 566/2/5 564/2/5 565/2/5
f 567/2/5 565/2/5 563/2/5
f 568/2/5 564/2/5 566/2/5
f 569/2/5 567/2/5 563/2/5
f 569/2/5 568/2/5 567/2/5
f 570/2/5 564/2/5 568/2/5
f 570/2/5 568/2/5 569/2/5
f 573/2/5 572/2/5 571/2/5
f 574/2/5 572/2/5 573/2/5
f 575/2/5 573/2/5 571/2/5
f 576/2/5 572/2/5 574/2/5
f 577/2/5 575/2/5 571/2/5
f 577/2/5 576/2/5 575/2/5
f 578/2/5 572/2/5 576/2/5
f 578/2/5 576/2/5 577/2/5
f 579/1/6 580/1/6 582/1/6
f 582/1/6 580/1/6 583/1/6
f 581/1/6 582/1/6 586/1/6
f 583/1/6 584/1/6 586/1/6
f 582/1/6 583/1/6 586/1/6
f 586/1/6 584/1/6 587/1/6
f 587/1/6 584/1/6 588/1/6
f 588/1/6 584/1/6 589/1/6
f 585/1/6 586/1/6 591/1/6
f 586/1/6 587/1/6 591/1/6
f 591/1/6 587/1/6 592/1/6
f 592/1/6 587/1/6 593/1/6
f 589/1/6 590/1/6 594/1/6
f 588/1/6 589/1/6 594/1/6
f 594/1/6 590/1/6 595/1/6
f 595/1/6 590/1/6 596/1/6
f 592/1/6 593/1/6 597/1/6
f 594/1/6 595/1/6 597/1/6
f 593/1/6 594/1/6 597/1/6
f 597/1/6 595/1/6 598/1/6
f 598/1/6 595/1/6 599/1/6
f 599/1/6 595/1/6 600/1/6
f 598/1/6 599/1/6 601/1/6
f 601/1/6 599/1/6 602/1/6
f 603/2/6 604/2/6 607/2/6
f 607/2/6 604/2/6 608/2/6
f 605/2/6 606/2/6 609/2/6
f 609/2/6 606/2/6 610/2/6
f 611/2/6 612/2/6 615/2/6
f 615/2/6 612/2/6 616/2/6
f 613/2/6 614/2/6 617/2/6
f 617/2/6 614/2/6 618/2/6
f 619/2/6 620/2/6 624/2/6
f 620/3/6 621/3/6 625/3/6
f 624/2/6 620/2/6 625/2/6
f 621/2/6 622/2/6 626/2/6
f 625/3/6 621/3/6 626/3/6
f 626/2/6 622/2/6 627/2/6
f 627/2/6 622/2/6 628/2/6
f 628/2/6 629/2/6 630/2/6
f 623/2/6 624/2/6 631/2/6
f 631/2/6 624/2/6 632/2/6
f 631/3/6 632/3/6 633/3/6
f 633/3/6 632/3/6 634/3/6
f 630/2/6 629/2/6 635/2/6
f 635/2/6 629/2/6 636/2/6
f 633/2/6 634/2/6 637/2/6
f 637/2/6 634/2/6 638/2/6
f 635/3/6 636/3/6 641/3/6
f 641/3/6 636/3/6 642/3/6
f 638/2/6 639/2/6 643/2/6
f 639/3/6 640/3/6 644/3/6
f 643/2/6 639/2/6 644/2/6
f 640/2/6 641/2/6 645/2/6
f 644/3/6 640/3/6 645/3/6
f 645/2/6 641/2/6 646/2/6
f 647/2/6 648/2/6 651/2/6
f 651/2/6 648/2/6 652/2/6
f 649/3/6 650/3/6 653/3/6
f 653/3/6 650/3/6 654/3/6
f 655/2/6 656/2/6 659/2/6
f 659/2/6 656/2/6 660/2/6
f 657/2/6 658/2/6 661/2/6
f 661/2/6 658/2/6 662/2/6
f 663/2/6 664/2/6 666/2/6
f 666/2/6 664/2/6 667/2/6
f 667/3/6 668/3/6 669/3/6
f 669/3/6 668/3/6 670/3/6
f 665/2/6 666/2/6 671/2/6
f 671/2/6 666/2/6 672/2/6
f 669/2/6 670/2/6 675/2/6
f 675/2/6 670/2/6 676/2/6
f 672/2/6 673/2/6 677/2/6
f 673/3/6 674/3/6 678/3/6
f 677/2/6 673/2/6 678/2/6
f 674/2/6 675/2/6 679/2/6
f 678/3/6 674/3/6 679/3/6
f 679/2/6 675/2/6 680/2/6
f 681/2/6 682/2/6 685/2/6
f 685/2/6 682/2/6 686/2/6
f 683/2/6 684/2/6 687/2/6
f 687/2/6 684/2/6 688/2/6
f 689/2/6 690/2/6 693/2/6
f 693/2/6 690/2/6 694/2/6
f 691/2/6 692/2/6 695/2/6
f 695/2/6 692/2/6 696/2/6
f 697/2/6 698/2/6 702/2/6
f 698/3/6 699/3/6 703/3/6
f 702/2/6 698/2/6 703/2/6
f 699/2/6 700/2/6 704/2/6
f 703/3/6 699/3/6 704/3/6
f 704/2/6 700/2/6 705/2/6
f 701/2/6 702/2/6 707/2/6
f 707/2/6 702/2/6 708/2/6
f 707/3/6 708/3/6 709/3/6
f 709/3/6 708/3/6 710/3/6
f 705/2/6 706/2/6 711/2/6
f 711/2/6 706/2/6 712/2/6
f 711/3/6 712/3/6 713/3/6
f 713/3/6 712/3/6 714/3/6
f 709/2/6 710/2/6 715/2/6
f 715/2/6 710/2/6 716/2/6
f 715/3/6 716/3/6 717/3/6
f 717/3/6 716/3/6 718/3/6
f 713/2/6 714/2/6 721/2/6
f 721/2/6 714/2/6 722/2/6
f 718/2/6 719/2/6 723/2/6
f 719/3/6 720/3/6 724/3/6
f 723/2/6 719/2/6 724/2/6
f 720/2/6 721/2/6 725/2/6
f 724/3/6 720/3/6 725/3/6
f 725/2/6 721/2/6 726/2/6
f 727/2/6 728/2/6 731/2/6
f 731/2/6 728/2/6 732/2/6
f 729/2/6 730/2/6 733/2/6
f 733/2/6 730/2/6 734/2/6
f 735/2/6 736/2/6 739/2/6
f 739/2/6 736/2/6 740/2/6
f 737/2/6 738/2/6 741/2/6
f 741/2/6 738/2/6 742/2/6
f 743/2/6 744/2/6 746/2/6
f 746/2/6 744/2/6 747/2/6
f 745/2/6 746/2/6 749/2/6
f 749/2/6 746/2/6 750/2/6
f 747/2/6 748/2/6 752/2/6
f 752/2/6 748/2/6 753/2/6
f 750/2/6 751/2/6 754/2/6
f 751/3/6 752/3/6 755/3/6
f 754/2/6 751/2/6 755/2/6
f 755/3/6 752/3/6 756/3/6
f 757/2/6 758/2/6 761/2/6
f 761/2/6 758/2/6 762/2/6
f 759/2/6 760/2/6 763/2/6
f 763/2/6 760/2/6 764/2/6
f 765/2/6 766/2/6 769/2/6
f 769/2/6 766/2/6 770/2/6
f 767/2/6 768/2/6 771/2/6
f 771/2/6 768/2/6 772/2/6
f 773/2/6 774/2/6 776/2/6
f 776/2/6 774/2/6 777/2/6
f 775/2/6 776/2/6 779/2/6
f 779/2/6 776/2/6 780/2/6
f 777/2/6 778/2/6 781/2/6
f 781/2/6 778/2/6 782/2/6
f 780/2/6 781/2/6 783/2/6
f 783/2/6 781/2/6 784/2/6
f 785/2/6 786/2/6 787/2/6
f 787/2/6 786/2/6 788/2/6
