# MagicaVoxel @ ephtracy

# material
mtllib Bag.mtl
usemtl palette

# normals
vn -1 0 0
vn 1 0 0
vn 0 0 1
vn 0 0 -1
vn 0 -1 0
vn 0 1 0

# texcoords
vt 0.869141 0.5
vt 0.966797 0.5
vt 0.986328 0.5
vt 0.990234 0.5

# verts
v -11 8 5.5
v -11 8 4.5
v -11 8 -4.5
v -11 8 -5.5
v -11 18 5.5
v -11 18 4.5
v -11 18 -4.5
v -11 18 -5.5
v -10 7 5.5
v -10 7 4.5
v -10 7 -4.5
v -10 7 -5.5
v -10 8 5.5
v -10 8 4.5
v -10 8 -4.5
v -10 8 -5.5
v -10 18 5.5
v -10 18 4.5
v -10 18 -4.5
v -10 18 -5.5
v -10 19 5.5
v -10 19 4.5
v -10 19 -4.5
v -10 19 -5.5
v -9 6 5.5
v -9 6 4.5
v -9 6 -4.5
v -9 6 -5.5
v -9 7 5.5
v -9 7 4.5
v -9 7 -4.5
v -9 7 -5.5
v -8 5 5.5
v -8 5 4.5
v -8 5 -4.5
v -8 5 -5.5
v -8 6 5.5
v -8 6 4.5
v -8 6 -4.5
v -8 6 -5.5
v -7 6 5.5
v -7 6 4.5
v -7 6 -4.5
v -7 6 -5.5
v -7 7 5.5
v -7 7 4.5
v -7 7 -4.5
v -7 7 -5.5
v -6 0 6.5
v -6 0 5.5
v -6 0 -5.5
v -6 0 -6.5
v -6 6 5.5
v -6 6 4.5
v -6 6 -4.5
v -6 6 -5.5
v -6 7 5.5
v -6 7 4.5
v -6 7 -4.5
v -6 7 -5.5
v -6 18 5.5
v -6 18 4.5
v -6 18 -4.5
v -6 18 -5.5
v -6 19 5.5
v -6 19 4.5
v -6 19 -4.5
v -6 19 -5.5
v -6 20 6.5
v -6 20 -6.5
v -5 0 7.5
v -5 0 6.5
v -5 0 -6.5
v -5 0 -7.5
v -5 19 7.5
v -5 19 6.5
v -5 19 -6.5
v -5 19 -7.5
v -5 20 7.5
v -5 20 6.5
v -5 20 5.5
v -5 20 -5.5
v -5 20 -6.5
v -5 20 -7.5
v -5 21 6.5
v -5 21 5.5
v -5 21 -5.5
v -5 21 -6.5
v -4 0 8.5
v -4 0 7.5
v -4 0 -7.5
v -4 0 -8.5
v -4 19 8.5
v -4 19 7.5
v -4 19 -7.5
v -4 19 -8.5
v -4 20 8.5
v -4 20 7.5
v -4 20 6.5
v -4 20 -6.5
v -4 20 -7.5
v -4 20 -8.5
v -4 21 7.5
v -4 21 6.5
v -4 21 -6.5
v -4 21 -7.5
v -10 8 5.5
v -10 8 4.5
v -10 8 -4.5
v -10 8 -5.5
v -10 18 5.5
v -10 18 4.5
v -10 18 -4.5
v -10 18 -5.5
v -9 7 5.5
v -9 7 4.5
v -9 7 -4.5
v -9 7 -5.5
v -9 8 5.5
v -9 8 4.5
v -9 8 -4.5
v -9 8 -5.5
v -8 6 5.5
v -8 6 4.5
v -8 6 -4.5
v -8 6 -5.5
v -8 7 5.5
v -8 7 4.5
v -8 7 -4.5
v -8 7 -5.5
v -7 5 5.5
v -7 5 4.5
v -7 5 -4.5
v -7 5 -5.5
v -7 6 5.5
v -7 6 4.5
v -7 6 -4.5
v -7 6 -5.5
v 5 0 8.5
v 5 0 7.5
v 5 0 -7.5
v 5 0 -8.5
v 5 19 8.5
v 5 19 7.5
v 5 19 -7.5
v 5 19 -8.5
v 5 20 8.5
v 5 20 7.5
v 5 20 6.5
v 5 20 -6.5
v 5 20 -7.5
v 5 20 -8.5
v 5 21 7.5
v 5 21 6.5
v 5 21 -6.5
v 5 21 -7.5
v 6 0 7.5
v 6 0 6.5
v 6 0 -6.5
v 6 0 -7.5
v 6 19 7.5
v 6 19 6.5
v 6 19 -6.5
v 6 19 -7.5
v 6 20 7.5
v 6 20 6.5
v 6 20 -6.5
v 6 20 -7.5
v 6 21 6.5
v 6 21 -6.5
v 7 0 6.5
v 7 0 5.5
v 7 0 4.5
v 7 0 -4.5
v 7 0 -5.5
v 7 0 -6.5
v 7 13 4.5
v 7 13 -4.5
v 7 14 4.5
v 7 14 3.5
v 7 14 -3.5
v 7 14 -4.5
v 7 15 3.5
v 7 15 -3.5
v 7 19 6.5
v 7 19 5.5
v 7 19 -5.5
v 7 19 -6.5
v 7 20 6.5
v 7 20 -6.5
v 10 0 4.5
v 10 0 3.5
v 10 0 -3.5
v 10 0 -4.5
v 10 13 4.5
v 10 13 3.5
v 10 13 -3.5
v 10 13 -4.5
v 10 14 4.5
v 10 14 3.5
v 10 14 -3.5
v 10 14 -4.5
v 10 15 3.5
v 10 15 -3.5
v 11 0 3.5
v 11 0 2.5
v 11 0 -2.5
v 11 0 -3.5
v 11 13 3.5
v 11 13 2.5
v 11 13 -2.5
v 11 13 -3.5
v 11 14 3.5
v 11 14 -3.5
v -4 0 8.5
v -4 19 8.5
v -4 20 8.5
v -3 0 8.5
v -3 19 8.5
v 4 0 8.5
v 4 19 8.5
v 5 0 8.5
v 5 19 8.5
v 5 20 8.5
v -5 0 7.5
v -5 19 7.5
v -5 20 7.5
v -4 0 7.5
v -4 19 7.5
v -4 20 7.5
v -4 21 7.5
v 5 0 7.5
v 5 19 7.5
v 5 20 7.5
v 5 21 7.5
v 6 0 7.5
v 6 19 7.5
v 6 20 7.5
v -6 0 6.5
v -6 20 6.5
v -5 0 6.5
v -5 19 6.5
v -5 20 6.5
v -5 21 6.5
v -4 20 6.5
v -4 21 6.5
v 5 20 6.5
v 5 21 6.5
v 6 0 6.5
v 6 19 6.5
v 6 20 6.5
v 6 21 6.5
v 7 0 6.5
v 7 19 6.5
v 7 20 6.5
v -11 8 5.5
v -11 18 5.5
v -10 7 5.5
v -10 8 5.5
v -10 18 5.5
v -10 19 5.5
v -9 6 5.5
v -9 7 5.5
v -9 8 5.5
v -8 5 5.5
v -8 6 5.5
v -8 7 5.5
v -7 5 5.5
v -7 6 5.5
v -7 7 5.5
v -6 6 5.5
v -6 7 5.5
v -6 18 5.5
v -6 19 5.5
v 7 0 4.5
v 7 13 4.5
v 7 14 4.5
v 10 0 4.5
v 10 13 4.5
v 10 14 4.5
v 7 14 3.5
v 7 15 3.5
v 10 0 3.5
v 10 13 3.5
v 10 14 3.5
v 10 15 3.5
v 11 0 3.5
v 11 13 3.5
v 11 14 3.5
v -11 8 -4.5
v -11 18 -4.5
v -10 7 -4.5
v -10 8 -4.5
v -10 18 -4.5
v -10 19 -4.5
v -9 6 -4.5
v -9 7 -4.5
v -9 8 -4.5
v -8 5 -4.5
v -8 6 -4.5
v -8 7 -4.5
v -7 5 -4.5
v -7 6 -4.5
v -7 7 -4.5
v -6 6 -4.5
v -6 7 -4.5
v -6 18 -4.5
v -6 19 -4.5
v -11 8 4.5
v -11 18 4.5
v -10 7 4.5
v -10 8 4.5
v -10 18 4.5
v -10 19 4.5
v -9 6 4.5
v -9 7 4.5
v -9 8 4.5
v -8 5 4.5
v -8 6 4.5
v -8 7 4.5
v -7 5 4.5
v -7 6 4.5
v -7 7 4.5
v -6 6 4.5
v -6 7 4.5
v -6 18 4.5
v -6 19 4.5
v 7 14 -3.5
v 7 15 -3.5
v 10 0 -3.5
v 10 13 -3.5
v 10 14 -3.5
v 10 15 -3.5
v 11 0 -3.5
v 11 13 -3.5
v 11 14 -3.5
v 7 0 -4.5
v 7 13 -4.5
v 7 14 -4.5
v 10 0 -4.5
v 10 13 -4.5
v 10 14 -4.5
v -11 8 -5.5
v -11 18 -5.5
v -10 7 -5.5
v -10 8 -5.5
v -10 18 -5.5
v -10 19 -5.5
v -9 6 -5.5
v -9 7 -5.5
v -9 8 -5.5
v -8 5 -5.5
v -8 6 -5.5
v -8 7 -5.5
v -7 5 -5.5
v -7 6 -5.5
v -7 7 -5.5
v -6 6 -5.5
v -6 7 -5.5
v -6 18 -5.5
v -6 19 -5.5
v -6 0 -6.5
v -6 20 -6.5
v -5 0 -6.5
v -5 19 -6.5
v -5 20 -6.5
v -5 21 -6.5
v -4 20 -6.5
v -4 21 -6.5
v 5 20 -6.5
v 5 21 -6.5
v 6 0 -6.5
v 6 19 -6.5
v 6 20 -6.5
v 6 21 -6.5
v 7 0 -6.5
v 7 19 -6.5
v 7 20 -6.5
v -5 0 -7.5
v -5 19 -7.5
v -5 20 -7.5
v -4 0 -7.5
v -4 19 -7.5
v -4 20 -7.5
v -4 21 -7.5
v 5 0 -7.5
v 5 19 -7.5
v 5 20 -7.5
v 5 21 -7.5
v 6 0 -7.5
v 6 19 -7.5
v 6 20 -7.5
v -4 0 -8.5
v -4 19 -8.5
v -4 20 -8.5
v -3 0 -8.5
v -3 19 -8.5
v 4 0 -8.5
v 4 19 -8.5
v 5 0 -8.5
v 5 19 -8.5
v 5 20 -8.5
v -4 0 8.5
v -3 0 8.5
v 4 0 8.5
v 5 0 8.5
v -5 0 7.5
v -4 0 7.5
v -3 0 7.5
v 4 0 7.5
v 5 0 7.5
v 6 0 7.5
v -6 0 6.5
v -5 0 6.5
v -4 0 6.5
v 5 0 6.5
v 6 0 6.5
v 7 0 6.5
v -6 0 5.5
v -5 0 5.5
v 6 0 5.5
v 7 0 5.5
v 6 0 4.5
v 7 0 4.5
v 10 0 4.5
v 7 0 3.5
v 10 0 3.5
v 11 0 3.5
v 10 0 2.5
v 11 0 2.5
v 10 0 -2.5
v 11 0 -2.5
v 7 0 -3.5
v 10 0 -3.5
v 11 0 -3.5
v 6 0 -4.5
v 7 0 -4.5
v 10 0 -4.5
v -6 0 -5.5
v -5 0 -5.5
v 6 0 -5.5
v 7 0 -5.5
v -6 0 -6.5
v -5 0 -6.5
v -4 0 -6.5
v 5 0 -6.5
v 6 0 -6.5
v 7 0 -6.5
v -5 0 -7.5
v -4 0 -7.5
v -3 0 -7.5
v 4 0 -7.5
v 5 0 -7.5
v 6 0 -7.5
v -4 0 -8.5
v -3 0 -8.5
v 4 0 -8.5
v 5 0 -8.5
v -8 5 5.5
v -7 5 5.5
v -8 5 4.5
v -7 5 4.5
v -8 5 -4.5
v -7 5 -4.5
v -8 5 -5.5
v -7 5 -5.5
v -9 6 5.5
v -8 6 5.5
v -7 6 5.5
v -6 6 5.5
v -9 6 4.5
v -8 6 4.5
v -7 6 4.5
v -6 6 4.5
v -9 6 -4.5
v -8 6 -4.5
v -7 6 -4.5
v -6 6 -4.5
v -9 6 -5.5
v -8 6 -5.5
v -7 6 -5.5
v -6 6 -5.5
v -10 7 5.5
v -9 7 5.5
v -10 7 4.5
v -9 7 4.5
v -10 7 -4.5
v -9 7 -4.5
v -10 7 -5.5
v -9 7 -5.5
v -11 8 5.5
v -10 8 5.5
v -11 8 4.5
v -10 8 4.5
v -11 8 -4.5
v -10 8 -4.5
v -11 8 -5.5
v -10 8 -5.5
v -10 18 5.5
v -6 18 5.5
v -10 18 4.5
v -6 18 4.5
v -10 18 -4.5
v -6 18 -4.5
v -10 18 -5.5
v -6 18 -5.5
v -8 6 5.5
v -7 6 5.5
v -8 6 4.5
v -7 6 4.5
v -8 6 -4.5
v -7 6 -4.5
v -8 6 -5.5
v -7 6 -5.5
v -9 7 5.5
v -8 7 5.5
v -7 7 5.5
v -6 7 5.5
v -9 7 4.5
v -8 7 4.5
v -7 7 4.5
v -6 7 4.5
v -9 7 -4.5
v -8 7 -4.5
v -7 7 -4.5
v -6 7 -4.5
v -9 7 -5.5
v -8 7 -5.5
v -7 7 -5.5
v -6 7 -5.5
v -10 8 5.5
v -9 8 5.5
v -10 8 4.5
v -9 8 4.5
v -10 8 -4.5
v -9 8 -4.5
v -10 8 -5.5
v -9 8 -5.5
v 7 14 4.5
v 10 14 4.5
v 7 14 3.5
v 10 14 3.5
v 11 14 3.5
v 7 14 -3.5
v 10 14 -3.5
v 11 14 -3.5
v 7 14 -4.5
v 10 14 -4.5
v 7 15 3.5
v 10 15 3.5
v 7 15 -3.5
v 10 15 -3.5
v -11 18 5.5
v -10 18 5.5
v -11 18 4.5
v -10 18 4.5
v -11 18 -4.5
v -10 18 -4.5
v -11 18 -5.5
v -10 18 -5.5
v -10 19 5.5
v -6 19 5.5
v -10 19 4.5
v -6 19 4.5
v -10 19 -4.5
v -6 19 -4.5
v -10 19 -5.5
v -6 19 -5.5
v -4 20 8.5
v 5 20 8.5
v -5 20 7.5
v -4 20 7.5
v 5 20 7.5
v 6 20 7.5
v -6 20 6.5
v -5 20 6.5
v -4 20 6.5
v 5 20 6.5
v 6 20 6.5
v 7 20 6.5
v -5 20 5.5
v -5 20 -5.5
v -6 20 -6.5
v -5 20 -6.5
v -4 20 -6.5
v 5 20 -6.5
v 6 20 -6.5
v 7 20 -6.5
v -5 20 -7.5
v -4 20 -7.5
v 5 20 -7.5
v 6 20 -7.5
v -4 20 -8.5
v 5 20 -8.5
v -4 21 7.5
v 5 21 7.5
v -5 21 6.5
v -4 21 6.5
v 5 21 6.5
v 6 21 6.5
v -5 21 5.5
v -4 21 5.5
v -2 21 4.5
v 3 21 4.5
v -2 21 -4.5
v 3 21 -4.5
v -5 21 -5.5
v -4 21 -5.5
v -5 21 -6.5
v -4 21 -6.5
v 5 21 -6.5
v 6 21 -6.5
v -4 21 -7.5
v 5 21 -7.5

# faces
f 5/1/1 2/1/1 1/1/1
f 6/1/1 2/1/1 5/1/1
f 7/1/1 4/1/1 3/1/1
f 8/1/1 4/1/1 7/1/1
f 13/1/1 10/1/1 9/1/1
f 14/1/1 10/1/1 13/1/1
f 15/1/1 12/1/1 11/1/1
f 16/1/1 12/1/1 15/1/1
f 21/1/1 18/1/1 17/1/1
f 22/1/1 18/1/1 21/1/1
f 23/1/1 20/1/1 19/1/1
f 24/1/1 20/1/1 23/1/1
f 29/1/1 26/1/1 25/1/1
f 30/1/1 26/1/1 29/1/1
f 31/1/1 28/1/1 27/1/1
f 32/1/1 28/1/1 31/1/1
f 37/1/1 34/1/1 33/1/1
f 38/1/1 34/1/1 37/1/1
f 39/1/1 36/1/1 35/1/1
f 40/1/1 36/1/1 39/1/1
f 45/1/1 42/1/1 41/1/1
f 46/1/1 42/1/1 45/1/1
f 47/1/1 44/1/1 43/1/1
f 48/1/1 44/1/1 47/1/1
f 53/4/1 50/4/1 49/4/1
f 53/1/1 51/1/1 50/1/1
f 54/1/1 51/1/1 53/1/1
f 55/1/1 51/1/1 54/1/1
f 56/4/1 52/4/1 51/4/1
f 56/1/1 51/1/1 55/1/1
f 57/4/1 53/4/1 49/4/1
f 58/1/1 55/1/1 54/1/1
f 59/1/1 55/1/1 58/1/1
f 60/4/1 52/4/1 56/4/1
f 61/4/1 57/4/1 49/4/1
f 61/1/1 60/1/1 59/1/1
f 61/1/1 59/1/1 58/1/1
f 61/1/1 58/1/1 57/1/1
f 62/1/1 60/1/1 61/1/1
f 63/1/1 60/1/1 62/1/1
f 64/4/1 52/4/1 60/4/1
f 64/1/1 60/1/1 63/1/1
f 65/4/1 61/4/1 49/4/1
f 66/1/1 63/1/1 62/1/1
f 67/1/1 63/1/1 66/1/1
f 68/4/1 52/4/1 64/4/1
f 69/4/1 65/4/1 49/4/1
f 69/4/1 68/4/1 67/4/1
f 69/4/1 67/4/1 66/4/1
f 69/4/1 66/4/1 65/4/1
f 70/4/1 52/4/1 68/4/1
f 70/4/1 68/4/1 69/4/1
f 75/1/1 72/1/1 71/1/1
f 76/1/1 72/1/1 75/1/1
f 77/1/1 74/1/1 73/1/1
f 78/1/1 74/1/1 77/1/1
f 79/2/1 76/2/1 75/2/1
f 80/2/1 76/2/1 79/2/1
f 83/2/1 78/2/1 77/2/1
f 84/2/1 78/2/1 83/2/1
f 85/4/1 81/4/1 80/4/1
f 86/1/1 82/1/1 81/1/1
f 86/4/1 81/4/1 85/4/1
f 87/4/1 83/4/1 82/4/1
f 87/1/1 82/1/1 86/1/1
f 88/4/1 83/4/1 87/4/1
f 93/4/1 90/4/1 89/4/1
f 94/4/1 90/4/1 93/4/1
f 95/4/1 92/4/1 91/4/1
f 96/4/1 92/4/1 95/4/1
f 97/2/1 94/2/1 93/2/1
f 98/2/1 94/2/1 97/2/1
f 101/2/1 96/2/1 95/2/1
f 102/2/1 96/2/1 101/2/1
f 103/4/1 99/4/1 98/4/1
f 104/4/1 99/4/1 103/4/1
f 105/4/1 101/4/1 100/4/1
f 106/4/1 101/4/1 105/4/1
f 107/1/2 108/1/2 111/1/2
f 111/1/2 108/1/2 112/1/2
f 109/1/2 110/1/2 113/1/2
f 113/1/2 110/1/2 114/1/2
f 115/1/2 116/1/2 119/1/2
f 119/1/2 116/1/2 120/1/2
f 117/1/2 118/1/2 121/1/2
f 121/1/2 118/1/2 122/1/2
f 123/1/2 124/1/2 127/1/2
f 127/1/2 124/1/2 128/1/2
f 125/1/2 126/1/2 129/1/2
f 129/1/2 126/1/2 130/1/2
f 131/1/2 132/1/2 135/1/2
f 135/1/2 132/1/2 136/1/2
f 133/1/2 134/1/2 137/1/2
f 137/1/2 134/1/2 138/1/2
f 139/4/2 140/4/2 143/4/2
f 143/4/2 140/4/2 144/4/2
f 141/4/2 142/4/2 145/4/2
f 145/4/2 142/4/2 146/4/2
f 143/2/2 144/2/2 147/2/2
f 147/2/2 144/2/2 148/2/2
f 145/2/2 146/2/2 151/2/2
f 151/2/2 146/2/2 152/2/2
f 148/4/2 149/4/2 153/4/2
f 153/4/2 149/4/2 154/4/2
f 150/4/2 151/4/2 155/4/2
f 155/4/2 151/4/2 156/4/2
f 157/1/2 158/1/2 161/1/2
f 161/1/2 158/1/2 162/1/2
f 159/1/2 160/1/2 163/1/2
f 163/1/2 160/1/2 164/1/2
f 161/2/2 162/2/2 165/2/2
f 165/2/2 162/2/2 166/2/2
f 163/2/2 164/2/2 167/2/2
f 167/2/2 164/2/2 168/2/2
f 166/4/2 167/4/2 169/4/2
f 169/4/2 167/4/2 170/4/2
f 172/1/2 173/1/2 177/1/2
f 174/1/2 175/1/2 178/1/2
f 172/1/2 177/1/2 179/1/2
f 178/1/2 175/1/2 182/1/2
f 179/1/2 180/1/2 183/1/2
f 181/1/2 182/1/2 184/1/2
f 171/4/2 172/4/2 185/4/2
f 183/1/2 184/1/2 186/1/2
f 185/4/2 172/4/2 186/4/2
f 179/1/2 183/1/2 186/1/2
f 172/1/2 179/1/2 186/1/2
f 175/4/2 176/4/2 187/4/2
f 186/1/2 184/1/2 187/1/2
f 184/1/2 182/1/2 187/1/2
f 182/1/2 175/1/2 187/1/2
f 187/4/2 176/4/2 188/4/2
f 185/2/2 186/2/2 189/2/2
f 186/2/2 187/2/2 189/2/2
f 187/2/2 188/2/2 189/2/2
f 189/2/2 188/2/2 190/2/2
f 191/1/2 192/1/2 195/1/2
f 195/1/2 192/1/2 196/1/2
f 193/1/2 194/1/2 197/1/2
f 197/1/2 194/1/2 198/1/2
f 195/2/2 196/2/2 199/2/2
f 199/2/2 196/2/2 200/2/2
f 197/2/2 198/2/2 201/2/2
f 201/2/2 198/2/2 202/2/2
f 200/1/2 201/1/2 203/1/2
f 203/1/2 201/1/2 204/1/2
f 205/4/2 206/4/2 209/4/2
f 206/1/2 207/1/2 210/1/2
f 209/4/2 206/4/2 210/4/2
f 207/4/2 208/4/2 211/4/2
f 210/1/2 207/1/2 211/1/2
f 211/4/2 208/4/2 212/4/2
f 209/2/2 210/2/2 213/2/2
f 210/2/2 211/2/2 213/2/2
f 211/2/2 212/2/2 213/2/2
f 213/2/2 212/2/2 214/2/2
f 218/4/3 216/4/3 215/4/3
f 219/2/3 217/2/3 216/2/3
f 219/4/3 216/4/3 218/4/3
f 220/1/3 219/1/3 218/1/3
f 221/2/3 217/2/3 219/2/3
f 221/1/3 219/1/3 220/1/3
f 222/4/3 221/4/3 220/4/3
f 223/2/3 217/2/3 221/2/3
f 223/4/3 221/4/3 222/4/3
f 224/2/3 217/2/3 223/2/3
f 228/1/3 226/1/3 225/1/3
f 229/2/3 227/2/3 226/2/3
f 229/1/3 226/1/3 228/1/3
f 230/2/3 227/2/3 229/2/3
f 234/4/3 231/4/3 230/4/3
f 235/4/3 231/4/3 234/4/3
f 236/1/3 233/1/3 232/1/3
f 237/2/3 234/2/3 233/2/3
f 237/1/3 233/1/3 236/1/3
f 238/2/3 234/2/3 237/2/3
f 241/4/3 240/4/3 239/4/3
f 242/4/3 240/4/3 241/4/3
f 243/4/3 240/4/3 242/4/3
f 245/4/3 244/4/3 243/4/3
f 246/4/3 244/4/3 245/4/3
f 251/4/3 248/4/3 247/4/3
f 252/4/3 248/4/3 251/4/3
f 253/4/3 250/4/3 249/4/3
f 254/2/3 251/2/3 250/2/3
f 254/4/3 250/4/3 253/4/3
f 255/2/3 251/2/3 254/2/3
f 259/1/3 257/1/3 256/1/3
f 260/1/3 257/1/3 259/1/3
f 263/1/3 259/1/3 258/1/3
f 264/1/3 259/1/3 263/1/3
f 266/1/3 263/1/3 262/1/3
f 267/1/3 263/1/3 266/1/3
f 268/1/3 266/1/3 265/1/3
f 269/1/3 266/1/3 268/1/3
f 271/1/3 270/1/3 269/1/3
f 272/1/3 270/1/3 271/1/3
f 273/1/3 261/1/3 260/1/3
f 274/1/3 261/1/3 273/1/3
f 278/1/3 276/1/3 275/1/3
f 279/2/3 277/2/3 276/2/3
f 279/1/3 276/1/3 278/1/3
f 280/2/3 277/2/3 279/2/3
f 285/1/3 282/1/3 281/1/3
f 286/1/3 282/1/3 285/1/3
f 287/4/3 284/4/3 283/4/3
f 288/2/3 285/2/3 284/2/3
f 288/4/3 284/4/3 287/4/3
f 289/2/3 285/2/3 288/2/3
f 293/1/3 291/1/3 290/1/3
f 294/1/3 291/1/3 293/1/3
f 297/1/3 293/1/3 292/1/3
f 298/1/3 293/1/3 297/1/3
f 300/1/3 297/1/3 296/1/3
f 301/1/3 297/1/3 300/1/3
f 302/1/3 300/1/3 299/1/3
f 303/1/3 300/1/3 302/1/3
f 305/1/3 304/1/3 303/1/3
f 306/1/3 304/1/3 305/1/3
f 307/1/3 295/1/3 294/1/3
f 308/1/3 295/1/3 307/1/3
f 309/1/4 310/1/4 312/1/4
f 312/1/4 310/1/4 313/1/4
f 311/1/4 312/1/4 316/1/4
f 316/1/4 312/1/4 317/1/4
f 315/1/4 316/1/4 319/1/4
f 319/1/4 316/1/4 320/1/4
f 318/1/4 319/1/4 321/1/4
f 321/1/4 319/1/4 322/1/4
f 322/1/4 323/1/4 324/1/4
f 324/1/4 323/1/4 325/1/4
f 313/1/4 314/1/4 326/1/4
f 326/1/4 314/1/4 327/1/4
f 328/1/4 329/1/4 332/1/4
f 332/1/4 329/1/4 333/1/4
f 330/4/4 331/4/4 334/4/4
f 331/2/4 332/2/4 335/2/4
f 334/4/4 331/4/4 335/4/4
f 335/2/4 332/2/4 336/2/4
f 337/1/4 338/1/4 340/1/4
f 338/2/4 339/2/4 341/2/4
f 340/1/4 338/1/4 341/1/4
f 341/2/4 339/2/4 342/2/4
f 343/1/4 344/1/4 346/1/4
f 346/1/4 344/1/4 347/1/4
f 345/1/4 346/1/4 350/1/4
f 350/1/4 346/1/4 351/1/4
f 349/1/4 350/1/4 353/1/4
f 353/1/4 350/1/4 354/1/4
f 352/1/4 353/1/4 355/1/4
f 355/1/4 353/1/4 356/1/4
f 356/1/4 357/1/4 358/1/4
f 358/1/4 357/1/4 359/1/4
f 347/1/4 348/1/4 360/1/4
f 360/1/4 348/1/4 361/1/4
f 362/4/4 363/4/4 364/4/4
f 364/4/4 363/4/4 365/4/4
f 365/4/4 363/4/4 366/4/4
f 366/4/4 367/4/4 368/4/4
f 368/4/4 367/4/4 369/4/4
f 370/4/4 371/4/4 374/4/4
f 374/4/4 371/4/4 375/4/4
f 372/4/4 373/4/4 376/4/4
f 373/2/4 374/2/4 377/2/4
f 376/4/4 373/4/4 377/4/4
f 377/2/4 374/2/4 378/2/4
f 379/1/4 380/1/4 382/1/4
f 380/2/4 381/2/4 383/2/4
f 382/1/4 380/1/4 383/1/4
f 383/2/4 381/2/4 384/2/4
f 384/4/4 385/4/4 388/4/4
f 388/4/4 385/4/4 389/4/4
f 386/1/4 387/1/4 390/1/4
f 387/2/4 388/2/4 391/2/4
f 390/1/4 387/1/4 391/1/4
f 391/2/4 388/2/4 392/2/4
f 393/4/4 394/4/4 396/4/4
f 394/2/4 395/2/4 397/2/4
f 396/4/4 394/4/4 397/4/4
f 396/1/4 397/1/4 398/1/4
f 397/2/4 395/2/4 399/2/4
f 398/1/4 397/1/4 399/1/4
f 398/4/4 399/4/4 400/4/4
f 399/2/4 395/2/4 401/2/4
f 400/4/4 399/4/4 401/4/4
f 401/2/4 395/2/4 402/2/4
f 408/4/5 404/4/5 403/4/5
f 409/1/5 405/1/5 404/1/5
f 409/4/5 404/4/5 408/4/5
f 410/4/5 406/4/5 405/4/5
f 410/1/5 405/1/5 409/1/5
f 411/4/5 406/4/5 410/4/5
f 414/1/5 408/1/5 407/1/5
f 415/3/5 409/3/5 408/3/5
f 415/3/5 410/3/5 409/3/5
f 415/1/5 408/1/5 414/1/5
f 415/3/5 411/3/5 410/3/5
f 416/1/5 412/1/5 411/1/5
f 416/3/5 411/3/5 415/3/5
f 417/1/5 412/1/5 416/1/5
f 419/4/5 414/4/5 413/4/5
f 420/3/5 415/3/5 414/3/5
f 420/4/5 414/4/5 419/4/5
f 420/3/5 416/3/5 415/3/5
f 420/3/5 417/3/5 416/3/5
f 421/4/5 418/4/5 417/4/5
f 421/3/5 417/3/5 420/3/5
f 422/4/5 418/4/5 421/4/5
f 423/3/5 421/3/5 420/3/5
f 423/1/5 422/1/5 421/1/5
f 424/1/5 422/1/5 423/1/5
f 426/3/5 424/3/5 423/3/5
f 426/1/5 425/1/5 424/1/5
f 427/1/5 425/1/5 426/1/5
f 429/3/5 427/3/5 426/3/5
f 429/4/5 428/4/5 427/4/5
f 430/4/5 428/4/5 429/4/5
f 431/3/5 429/3/5 426/3/5
f 431/1/5 430/1/5 429/1/5
f 432/1/5 430/1/5 431/1/5
f 433/3/5 426/3/5 423/3/5
f 433/3/5 431/3/5 426/3/5
f 434/4/5 432/4/5 431/4/5
f 434/3/5 431/3/5 433/3/5
f 435/4/5 432/4/5 434/4/5
f 436/3/5 423/3/5 420/3/5
f 436/3/5 433/3/5 423/3/5
f 437/1/5 434/1/5 433/1/5
f 437/3/5 433/3/5 436/3/5
f 438/1/5 434/1/5 437/1/5
f 439/1/5 420/1/5 419/1/5
f 440/3/5 436/3/5 420/3/5
f 440/1/5 420/1/5 439/1/5
f 441/1/5 437/1/5 436/1/5
f 441/3/5 436/3/5 440/3/5
f 442/1/5 437/1/5 441/1/5
f 443/4/5 440/4/5 439/4/5
f 444/3/5 441/3/5 440/3/5
f 444/4/5 440/4/5 443/4/5
f 445/3/5 441/3/5 444/3/5
f 446/3/5 441/3/5 445/3/5
f 447/4/5 442/4/5 441/4/5
f 447/3/5 441/3/5 446/3/5
f 448/4/5 442/4/5 447/4/5
f 449/1/5 445/1/5 444/1/5
f 450/3/5 446/3/5 445/3/5
f 450/1/5 445/1/5 449/1/5
f 451/3/5 446/3/5 450/3/5
f 452/3/5 446/3/5 451/3/5
f 453/1/5 447/1/5 446/1/5
f 453/3/5 446/3/5 452/3/5
f 454/1/5 447/1/5 453/1/5
f 455/4/5 451/4/5 450/4/5
f 456/1/5 452/1/5 451/1/5
f 456/4/5 451/4/5 455/4/5
f 457/4/5 453/4/5 452/4/5
f 457/1/5 452/1/5 456/1/5
f 458/4/5 453/4/5 457/4/5
f 461/1/5 460/1/5 459/1/5
f 462/1/5 460/1/5 461/1/5
f 465/1/5 464/1/5 463/1/5
f 466/1/5 464/1/5 465/1/5
f 471/1/5 468/1/5 467/1/5
f 472/1/5 468/1/5 471/1/5
f 473/1/5 470/1/5 469/1/5
f 474/1/5 470/1/5 473/1/5
f 479/1/5 476/1/5 475/1/5
f 480/1/5 476/1/5 479/1/5
f 481/1/5 478/1/5 477/1/5
f 482/1/5 478/1/5 481/1/5
f 485/1/5 484/1/5 483/1/5
f 486/1/5 484/1/5 485/1/5
f 489/1/5 488/1/5 487/1/5
f 490/1/5 488/1/5 489/1/5
f 493/1/5 492/1/5 491/1/5
f 494/1/5 492/1/5 493/1/5
f 497/1/5 496/1/5 495/1/5
f 498/1/5 496/1/5 497/1/5
f 501/1/5 500/1/5 499/1/5
f 502/1/5 500/1/5 501/1/5
f 505/1/5 504/1/5 503/1/5
f 506/1/5 504/1/5 505/1/5
f 507/1/6 508/1/6 509/1/6
f 509/1/6 508/1/6 510/1/6
f 511/1/6 512/1/6 513/1/6
f 513/1/6 512/1/6 514/1/6
f 515/1/6 516/1/6 519/1/6
f 519/1/6 516/1/6 520/1/6
f 517/1/6 518/1/6 521/1/6
f 521/1/6 518/1/6 522/1/6
f 523/1/6 524/1/6 527/1/6
f 527/1/6 524/1/6 528/1/6
f 525/1/6 526/1/6 529/1/6
f 529/1/6 526/1/6 530/1/6
f 531/1/6 532/1/6 533/1/6
f 533/1/6 532/1/6 534/1/6
f 535/1/6 536/1/6 537/1/6
f 537/1/6 536/1/6 538/1/6
f 539/2/6 540/2/6 541/2/6
f 541/2/6 540/2/6 542/2/6
f 542/2/6 543/2/6 545/2/6
f 545/2/6 543/2/6 546/2/6
f 544/2/6 545/2/6 547/2/6
f 547/2/6 545/2/6 548/2/6
f 549/1/6 550/1/6 551/1/6
f 551/1/6 550/1/6 552/1/6
f 553/1/6 554/1/6 555/1/6
f 555/1/6 554/1/6 556/1/6
f 557/1/6 558/1/6 559/1/6
f 559/1/6 558/1/6 560/1/6
f 561/1/6 562/1/6 563/1/6
f 563/1/6 562/1/6 564/1/6
f 565/1/6 566/1/6 567/1/6
f 567/1/6 566/1/6 568/1/6
f 569/2/6 570/2/6 572/2/6
f 572/2/6 570/2/6 573/2/6
f 571/2/6 572/2/6 576/2/6
f 576/2/6 572/2/6 577/2/6
f 573/2/6 574/2/6 578/2/6
f 578/2/6 574/2/6 579/2/6
f 575/4/6 576/4/6 581/4/6
f 575/4/6 581/4/6 582/4/6
f 575/4/6 582/4/6 583/4/6
f 583/4/6 582/4/6 584/4/6
f 579/2/6 580/2/6 587/2/6
f 587/2/6 580/2/6 588/2/6
f 584/2/6 585/2/6 589/2/6
f 589/2/6 585/2/6 590/2/6
f 586/2/6 587/2/6 591/2/6
f 591/2/6 587/2/6 592/2/6
f 590/2/6 591/2/6 593/2/6
f 593/2/6 591/2/6 594/2/6
f 595/4/6 596/4/6 598/4/6
f 598/4/6 596/4/6 599/4/6
f 597/4/6 598/4/6 601/4/6
f 598/1/6 599/1/6 602/1/6
f 601/4/6 598/4/6 602/4/6
f 601/1/6 602/1/6 603/1/6
f 602/1/6 599/1/6 603/1/6
f 603/1/6 599/1/6 604/1/6
f 601/1/6 603/1/6 605/1/6
f 603/4/6 604/4/6 605/4/6
f 604/1/6 599/1/6 606/1/6
f 605/4/6 604/4/6 606/4/6
f 601/1/6 605/1/6 607/1/6
f 605/1/6 606/1/6 607/1/6
f 607/1/6 606/1/6 608/1/6
f 607/4/6 608/4/6 609/4/6
f 608/1/6 606/1/6 610/1/6
f 609/4/6 608/4/6 610/4/6
f 599/4/6 600/4/6 611/4/6
f 610/1/6 606/1/6 611/1/6
f 606/1/6 599/1/6 611/1/6
f 611/4/6 600/4/6 612/4/6
f 610/4/6 611/4/6 613/4/6
f 613/4/6 611/4/6 614/4/6
