# MagicaVoxel @ ephtracy

# material
mtllib Chair.mtl
usemtl palette

# normals
vn -1 0 0
vn 1 0 0
vn 0 0 1
vn 0 0 -1
vn 0 -1 0
vn 0 1 0

# texcoords
vt 0.255859 0.5
vt 0.396484 0.5
vt 0.994141 0.5

# verts
v -5.5 0 4.5
v -5.5 0 3.5
v -5.5 0 -3.5
v -5.5 0 -4.5
v -5.5 1 4.5
v -5.5 1 3.5
v -5.5 1 -3.5
v -5.5 1 -4.5
v -5.5 8 3.5
v -5.5 8 -3.5
v -5.5 9 4.5
v -5.5 9 -4.5
v 4.5 0 4.5
v 4.5 0 3.5
v 4.5 0 -3.5
v 4.5 0 -4.5
v 4.5 1 4.5
v 4.5 1 3.5
v 4.5 1 -3.5
v 4.5 1 -4.5
v 4.5 8 4.5
v 4.5 8 3.5
v 4.5 8 -3.5
v 4.5 8 -4.5
v 4.5 9 4.5
v 4.5 9 -4.5
v 4.5 11 3.5
v 4.5 11 -3.5
v 4.5 12 3.5
v 4.5 12 -3.5
v 4.5 13 3.5
v 4.5 13 -3.5
v 4.5 14 3.5
v 4.5 14 -3.5
v 4.5 15 3.5
v 4.5 15 -3.5
v 4.5 16 3.5
v 4.5 16 -3.5
v 4.5 17 3.5
v 4.5 17 -3.5
v 4.5 18 3.5
v 4.5 18 -3.5
v 4.5 19 4.5
v 4.5 19 -4.5
v -4.5 0 4.5
v -4.5 0 3.5
v -4.5 0 -3.5
v -4.5 0 -4.5
v -4.5 1 4.5
v -4.5 1 3.5
v -4.5 1 -3.5
v -4.5 1 -4.5
v -4.5 8 4.5
v -4.5 8 3.5
v -4.5 8 -3.5
v -4.5 8 -4.5
v 5.5 0 4.5
v 5.5 0 3.5
v 5.5 0 -3.5
v 5.5 0 -4.5
v 5.5 1 4.5
v 5.5 1 3.5
v 5.5 1 -3.5
v 5.5 1 -4.5
v 5.5 8 3.5
v 5.5 8 -3.5
v 5.5 11 3.5
v 5.5 11 -3.5
v 5.5 12 3.5
v 5.5 12 -3.5
v 5.5 13 3.5
v 5.5 13 -3.5
v 5.5 14 3.5
v 5.5 14 -3.5
v 5.5 15 3.5
v 5.5 15 -3.5
v 5.5 16 3.5
v 5.5 16 -3.5
v 5.5 17 3.5
v 5.5 17 -3.5
v 5.5 18 3.5
v 5.5 18 -3.5
v 5.5 19 4.5
v 5.5 19 -4.5
v -5.5 0 4.5
v -5.5 1 4.5
v -5.5 9 4.5
v -4.5 0 4.5
v -4.5 1 4.5
v -4.5 8 4.5
v 4.5 0 4.5
v 4.5 1 4.5
v 4.5 8 4.5
v 4.5 9 4.5
v 4.5 19 4.5
v 5.5 0 4.5
v 5.5 1 4.5
v 5.5 19 4.5
v -5.5 0 -3.5
v -5.5 1 -3.5
v -5.5 8 -3.5
v -4.5 0 -3.5
v -4.5 1 -3.5
v -4.5 8 -3.5
v 4.5 0 -3.5
v 4.5 1 -3.5
v 4.5 8 -3.5
v 4.5 11 -3.5
v 4.5 12 -3.5
v 4.5 13 -3.5
v 4.5 14 -3.5
v 4.5 15 -3.5
v 4.5 16 -3.5
v 4.5 17 -3.5
v 4.5 18 -3.5
v 5.5 0 -3.5
v 5.5 1 -3.5
v 5.5 8 -3.5
v 5.5 11 -3.5
v 5.5 12 -3.5
v 5.5 13 -3.5
v 5.5 14 -3.5
v 5.5 15 -3.5
v 5.5 16 -3.5
v 5.5 17 -3.5
v 5.5 18 -3.5
v -5.5 0 3.5
v -5.5 1 3.5
v -5.5 8 3.5
v -4.5 0 3.5
v -4.5 1 3.5
v -4.5 8 3.5
v 4.5 0 3.5
v 4.5 1 3.5
v 4.5 8 3.5
v 4.5 11 3.5
v 4.5 12 3.5
v 4.5 13 3.5
v 4.5 14 3.5
v 4.5 15 3.5
v 4.5 16 3.5
v 4.5 17 3.5
v 4.5 18 3.5
v 5.5 0 3.5
v 5.5 1 3.5
v 5.5 8 3.5
v 5.5 11 3.5
v 5.5 12 3.5
v 5.5 13 3.5
v 5.5 14 3.5
v 5.5 15 3.5
v 5.5 16 3.5
v 5.5 17 3.5
v 5.5 18 3.5
v -5.5 0 -4.5
v -5.5 1 -4.5
v -5.5 9 -4.5
v -4.5 0 -4.5
v -4.5 1 -4.5
v -4.5 8 -4.5
v 4.5 0 -4.5
v 4.5 1 -4.5
v 4.5 8 -4.5
v 4.5 9 -4.5
v 4.5 19 -4.5
v 5.5 0 -4.5
v 5.5 1 -4.5
v 5.5 19 -4.5
v -5.5 0 4.5
v -4.5 0 4.5
v 4.5 0 4.5
v 5.5 0 4.5
v -5.5 0 3.5
v -4.5 0 3.5
v 4.5 0 3.5
v 5.5 0 3.5
v -5.5 0 -3.5
v -4.5 0 -3.5
v 4.5 0 -3.5
v 5.5 0 -3.5
v -5.5 0 -4.5
v -4.5 0 -4.5
v 4.5 0 -4.5
v 5.5 0 -4.5
v -4.5 8 4.5
v 4.5 8 4.5
v -5.5 8 3.5
v -4.5 8 3.5
v 4.5 8 3.5
v 5.5 8 3.5
v -3.5 8 2.5
v 2.5 8 2.5
v -3.5 8 -2.5
v 2.5 8 -2.5
v -5.5 8 -3.5
v -4.5 8 -3.5
v 4.5 8 -3.5
v 5.5 8 -3.5
v -4.5 8 -4.5
v 4.5 8 -4.5
v 4.5 12 3.5
v 5.5 12 3.5
v 4.5 12 -3.5
v 5.5 12 -3.5
v 4.5 14 3.5
v 5.5 14 3.5
v 4.5 14 -3.5
v 5.5 14 -3.5
v 4.5 16 3.5
v 5.5 16 3.5
v 4.5 16 -3.5
v 5.5 16 -3.5
v 4.5 18 3.5
v 5.5 18 3.5
v 4.5 18 -3.5
v 5.5 18 -3.5
v -5.5 9 4.5
v 4.5 9 4.5
v -3.5 9 2.5
v 2.5 9 2.5
v -3.5 9 -2.5
v 2.5 9 -2.5
v -5.5 9 -4.5
v 4.5 9 -4.5
v 4.5 11 3.5
v 5.5 11 3.5
v 4.5 11 -3.5
v 5.5 11 -3.5
v 4.5 13 3.5
v 5.5 13 3.5
v 4.5 13 -3.5
v 5.5 13 -3.5
v 4.5 15 3.5
v 5.5 15 3.5
v 4.5 15 -3.5
v 5.5 15 -3.5
v 4.5 17 3.5
v 5.5 17 3.5
v 4.5 17 -3.5
v 5.5 17 -3.5
v 4.5 19 4.5
v 5.5 19 4.5
v 4.5 19 -4.5
v 5.5 19 -4.5

# faces
f 5/3/1 2/3/1 1/3/1
f 6/3/1 2/3/1 5/3/1
f 7/3/1 4/3/1 3/3/1
f 8/3/1 4/3/1 7/3/1
f 9/2/1 6/2/1 5/2/1
f 10/2/1 8/2/1 7/2/1
f 11/2/1 9/2/1 5/2/1
f 11/2/1 10/2/1 9/2/1
f 12/2/1 8/2/1 10/2/1
f 12/2/1 10/2/1 11/2/1
f 17/3/1 14/3/1 13/3/1
f 18/3/1 14/3/1 17/3/1
f 19/3/1 16/3/1 15/3/1
f 20/3/1 16/3/1 19/3/1
f 21/2/1 18/2/1 17/2/1
f 22/2/1 18/2/1 21/2/1
f 23/2/1 20/2/1 19/2/1
f 24/2/1 20/2/1 23/2/1
f 27/2/1 26/2/1 25/2/1
f 28/2/1 26/2/1 27/2/1
f 29/2/1 27/2/1 25/2/1
f 30/2/1 26/2/1 28/2/1
f 31/2/1 29/2/1 25/2/1
f 31/2/1 30/2/1 29/2/1
f 32/2/1 26/2/1 30/2/1
f 32/2/1 30/2/1 31/2/1
f 33/2/1 31/2/1 25/2/1
f 34/2/1 26/2/1 32/2/1
f 35/2/1 33/2/1 25/2/1
f 35/2/1 34/2/1 33/2/1
f 36/2/1 26/2/1 34/2/1
f 36/2/1 34/2/1 35/2/1
f 37/2/1 35/2/1 25/2/1
f 38/2/1 26/2/1 36/2/1
f 39/2/1 37/2/1 25/2/1
f 39/2/1 38/2/1 37/2/1
f 40/2/1 26/2/1 38/2/1
f 40/2/1 38/2/1 39/2/1
f 41/2/1 39/2/1 25/2/1
f 42/2/1 26/2/1 40/2/1
f 43/2/1 41/2/1 25/2/1
f 43/2/1 42/2/1 41/2/1
f 44/2/1 26/2/1 42/2/1
f 44/2/1 42/2/1 43/2/1
f 45/3/2 46/3/2 49/3/2
f 49/3/2 46/3/2 50/3/2
f 47/3/2 48/3/2 51/3/2
f 51/3/2 48/3/2 52/3/2
f 49/2/2 50/2/2 53/2/2
f 53/2/2 50/2/2 54/2/2
f 51/2/2 52/2/2 55/2/2
f 55/2/2 52/2/2 56/2/2
f 57/3/2 58/3/2 61/3/2
f 61/3/2 58/3/2 62/3/2
f 59/3/2 60/3/2 63/3/2
f 63/3/2 60/3/2 64/3/2
f 61/2/2 62/2/2 65/2/2
f 63/2/2 64/2/2 66/2/2
f 61/2/2 65/2/2 67/2/2
f 65/2/2 66/2/2 67/2/2
f 66/2/2 64/2/2 68/2/2
f 67/2/2 66/2/2 68/2/2
f 61/2/2 67/2/2 69/2/2
f 68/2/2 64/2/2 70/2/2
f 61/2/2 69/2/2 71/2/2
f 69/2/2 70/2/2 71/2/2
f 70/2/2 64/2/2 72/2/2
f 71/2/2 70/2/2 72/2/2
f 61/2/2 71/2/2 73/2/2
f 72/2/2 64/2/2 74/2/2
f 61/2/2 73/2/2 75/2/2
f 73/2/2 74/2/2 75/2/2
f 74/2/2 64/2/2 76/2/2
f 75/2/2 74/2/2 76/2/2
f 61/2/2 75/2/2 77/2/2
f 76/2/2 64/2/2 78/2/2
f 61/2/2 77/2/2 79/2/2
f 77/2/2 78/2/2 79/2/2
f 78/2/2 64/2/2 80/2/2
f 79/2/2 78/2/2 80/2/2
f 61/2/2 79/2/2 81/2/2
f 80/2/2 64/2/2 82/2/2
f 61/2/2 81/2/2 83/2/2
f 81/2/2 82/2/2 83/2/2
f 82/2/2 64/2/2 84/2/2
f 83/2/2 82/2/2 84/2/2
f 88/3/3 86/3/3 85/3/3
f 89/2/3 87/2/3 86/2/3
f 89/3/3 86/3/3 88/3/3
f 90/2/3 87/2/3 89/2/3
f 93/2/3 87/2/3 90/2/3
f 94/2/3 87/2/3 93/2/3
f 96/3/3 92/3/3 91/3/3
f 97/2/3 95/2/3 94/2/3
f 97/3/3 92/3/3 96/3/3
f 97/2/3 93/2/3 92/2/3
f 97/2/3 94/2/3 93/2/3
f 98/2/3 95/2/3 97/2/3
f 102/3/3 100/3/3 99/3/3
f 103/2/3 101/2/3 100/2/3
f 103/3/3 100/3/3 102/3/3
f 104/2/3 101/2/3 103/2/3
f 116/3/3 106/3/3 105/3/3
f 117/2/3 107/2/3 106/2/3
f 117/3/3 106/3/3 116/3/3
f 118/2/3 107/2/3 117/2/3
f 119/2/3 109/2/3 108/2/3
f 120/2/3 109/2/3 119/2/3
f 121/2/3 111/2/3 110/2/3
f 122/2/3 111/2/3 121/2/3
f 123/2/3 113/2/3 112/2/3
f 124/2/3 113/2/3 123/2/3
f 125/2/3 115/2/3 114/2/3
f 126/2/3 115/2/3 125/2/3
f 127/3/4 128/3/4 130/3/4
f 128/2/4 129/2/4 131/2/4
f 130/3/4 128/3/4 131/3/4
f 131/2/4 129/2/4 132/2/4
f 133/3/4 134/3/4 144/3/4
f 134/2/4 135/2/4 145/2/4
f 144/3/4 134/3/4 145/3/4
f 145/2/4 135/2/4 146/2/4
f 136/2/4 137/2/4 147/2/4
f 147/2/4 137/2/4 148/2/4
f 138/2/4 139/2/4 149/2/4
f 149/2/4 139/2/4 150/2/4
f 140/2/4 141/2/4 151/2/4
f 151/2/4 141/2/4 152/2/4
f 142/2/4 143/2/4 153/2/4
f 153/2/4 143/2/4 154/2/4
f 155/3/4 156/3/4 158/3/4
f 156/2/4 157/2/4 159/2/4
f 158/3/4 156/3/4 159/3/4
f 159/2/4 157/2/4 160/2/4
f 160/2/4 157/2/4 163/2/4
f 163/2/4 157/2/4 164/2/4
f 161/3/4 162/3/4 166/3/4
f 164/2/4 165/2/4 167/2/4
f 166/3/4 162/3/4 167/3/4
f 162/2/4 163/2/4 167/2/4
f 163/2/4 164/2/4 167/2/4
f 167/2/4 165/2/4 168/2/4
f 173/3/5 170/3/5 169/3/5
f 174/3/5 170/3/5 173/3/5
f 175/3/5 172/3/5 171/3/5
f 176/3/5 172/3/5 175/3/5
f 181/3/5 178/3/5 177/3/5
f 182/3/5 178/3/5 181/3/5
f 183/3/5 180/3/5 179/3/5
f 184/3/5 180/3/5 183/3/5
f 188/2/5 186/2/5 185/2/5
f 189/2/5 186/2/5 188/2/5
f 191/2/5 188/2/5 187/2/5
f 191/2/5 190/2/5 189/2/5
f 191/2/5 189/2/5 188/2/5
f 192/2/5 190/2/5 191/2/5
f 193/2/5 191/2/5 187/2/5
f 193/1/5 192/1/5 191/1/5
f 194/2/5 190/2/5 192/2/5
f 194/1/5 192/1/5 193/1/5
f 195/2/5 193/2/5 187/2/5
f 195/2/5 194/2/5 193/2/5
f 196/2/5 194/2/5 195/2/5
f 197/2/5 190/2/5 194/2/5
f 197/2/5 194/2/5 196/2/5
f 198/2/5 190/2/5 197/2/5
f 199/2/5 197/2/5 196/2/5
f 200/2/5 197/2/5 199/2/5
f 203/2/5 202/2/5 201/2/5
f 204/2/5 202/2/5 203/2/5
f 207/2/5 206/2/5 205/2/5
f 208/2/5 206/2/5 207/2/5
f 211/2/5 210/2/5 209/2/5
f 212/2/5 210/2/5 211/2/5
f 215/2/5 214/2/5 213/2/5
f 216/2/5 214/2/5 215/2/5
f 217/2/6 218/2/6 219/2/6
f 219/2/6 218/2/6 220/2/6
f 217/2/6 219/2/6 221/2/6
f 219/1/6 220/1/6 221/1/6
f 220/2/6 218/2/6 222/2/6
f 221/1/6 220/1/6 222/1/6
f 217/2/6 221/2/6 223/2/6
f 221/2/6 222/2/6 223/2/6
f 222/2/6 218/2/6 224/2/6
f 223/2/6 222/2/6 224/2/6
f 225/2/6 226/2/6 227/2/6
f 227/2/6 226/2/6 228/2/6
f 229/2/6 230/2/6 231/2/6
f 231/2/6 230/2/6 232/2/6
f 233/2/6 234/2/6 235/2/6
f 235/2/6 234/2/6 236/2/6
f 237/2/6 238/2/6 239/2/6
f 239/2/6 238/2/6 240/2/6
f 241/2/6 242/2/6 243/2/6
f 243/2/6 242/2/6 244/2/6
